<svg xmlns="http://www.w3.org/2000/svg" xmlns:xlink="http://www.w3.org/1999/xlink" viewBox="0 0 205.43 220.72"><defs><style>.cls-1{fill:url(#linear-gradient);}.cls-2{fill:url(#linear-gradient-2);}.cls-3{fill:#a4a4a4;}.cls-4{fill:#8e8e8e;}.cls-5{fill:#dadada;}</style><linearGradient id="linear-gradient" x1="80.03" y1="222.47" x2="80.03" y2="149.45" gradientUnits="userSpaceOnUse"><stop offset="0" stop-color="#e0e0e0"/><stop offset="1" stop-color="#c7c7c7"/></linearGradient><linearGradient id="linear-gradient-2" x1="140.95" y1="222.47" x2="140.95" y2="149.85" xlink:href="#linear-gradient"/></defs><g id="Layer_3" data-name="Layer 3"><path class="cls-1" d="M49,218.21l10.61-17.53s21.22-3.23,26.83-16,0-33,0-33l24.71-2.21v73H57Z" transform="translate(-8.52 -17.39)"/><path class="cls-2" d="M172.36,218.21l-7.59-17.53s-24.24-3.23-29.86-16,0-33,0-33L110,149.85l-.51,72.62h54.83Z" transform="translate(-8.52 -17.39)"/></g><g id="Layer_2" data-name="Layer 2"><path class="cls-3" d="M8.52,238.11c.1,0,3.8-10.64,4.36-11.76A43.77,43.77,0,0,1,21,214.67c7.64-7.68,18.35-8.27,28.32-11,3.45-.94,6.91-1.9,10.3-3,0,0,51.41,45.62,105.2,0q6.47,1.86,13,3.55c9.3,2.43,18.95,3.42,26.43,10.05,6.83,6.06,9.84,14.84,9.78,23.83Z" transform="translate(-8.52 -17.39)"/></g><g id="Layer_5" data-name="Layer 5"><path class="cls-4" d="M110.94,141.28l-34.68-3.92s-24.17-16.93-29.79-27.74c0,0-4-7.32-1-12.34S52.17,88.17,56,77.7c0,0,6.21-16.93,10-30S83.49,25.19,83.49,25.19s13.28-9,25.28-7.66,13.78,2,16.85,4.94a6.66,6.66,0,0,1,2,4.51s11.83.34,19.83,5.19S159,45.87,159.57,47.74a71,71,0,0,1,1.71,14s5.19,5.27,8,18.12,2.46,21.45,2.46,21.45.09,8.85-9.27,21.53a120.22,120.22,0,0,1-21.11,21.62Z" transform="translate(-8.52 -17.39)"/></g><g id="Layer_6" data-name="Layer 6"><path class="cls-4" d="M140.43,144.51s24.85,7.15,30.29,39.49c0,0,1.19,8.51,5.62,10.38,0,0-15.49,3.75-28.25-4.08,0,0-15.32-9.36-16.52-26.56s-4.76-24.51-4.76-24.51Z" transform="translate(-8.52 -17.39)"/></g><g id="Layer_4" data-name="Layer 4"><path class="cls-5" d="M110.94,173.74s-5.2.13-11.66-5.23c0,0-14.94-14-17.71-18.08A17.89,17.89,0,0,1,77.79,144c-1.11-3.61-2.73-8.08-2.73-8.08s-3.78.68-4.8-2.68c0,0-.39-2.17-.77-5.54s-.34-6.4-2.13-8.68L63.19,113s-1.36-1.58-.64-5.28a43.84,43.84,0,0,0,6.13,4.47s-3.19-5.28-2.94-9.06c0,0-.59-6.85,8.35-14.47A172.59,172.59,0,0,1,96.51,74.3S117,63.06,121.11,55.57c0,0,9.61,17.62,26.63,28.77A16.23,16.23,0,0,1,154.64,99a81.8,81.8,0,0,1-4.17,20.42s7.06-10.38,8.68-17.1v7.57s.25,3.41-3.75,7.41-3.49,12.08-3.49,12.08,0,7-3.65,6.55h-1.79l-3.15,9.37s-.77,3.57-5.79,8c0,0-13.7,15.23-18.81,17.7S114,173.53,110.94,173.74Z" transform="translate(-8.52 -17.39)"/></g></svg>