<svg xmlns="http://www.w3.org/2000/svg" xmlns:xlink="http://www.w3.org/1999/xlink" viewBox="0 0 221.88 230.5"><defs><style>.cls-1{fill:url(#linear-gradient);}.cls-2{fill:#bababa;}.cls-3{fill:#a8a8a8;}.cls-4{fill:#eaeaea;}</style><linearGradient id="linear-gradient" x1="112.77" y1="140.36" x2="112.77" y2="198.77" gradientUnits="userSpaceOnUse"><stop offset="0" stop-color="#cecece"/><stop offset="1" stop-color="#f1f1f1"/></linearGradient></defs><g id="Layer_8" data-name="Layer 8"><path class="cls-1" d="M153.45,173.74s-5.45.43-6.64-8-2.72-21.7-2.13-30.89H74.89l-.68,8.51s2.11,29-4.25,31.19v4l15.83,13.61,23.32,4.72,27.4-3.53,19.06-11.57Z" transform="translate(0 -7.61)"/></g><g id="Layer_7" data-name="Layer 7"><path class="cls-2" d="M70,174.55s15,20.3,41.28,18.94,37.7-9.79,42.21-19.75a124.84,124.84,0,0,1,25.87,11.41s23.83,13.11,29.45,15.49,10.8,9.79,10.8,9.79,2.47,6.77,2.3,9.68v18H0v-18s3.34-9.2,21-23.44c0,0,5.52-4.29,11.65-4.2a7,7,0,0,0,2.63-.92c3.16-1.5,5.48-4.18,8.47-6a80.49,80.49,0,0,1,8.06-4.13A181.6,181.6,0,0,1,70,174.55Z" transform="translate(0 -7.61)"/></g><g id="Layer_10" data-name="Layer 10"><path class="cls-3" d="M68.94,105.74l-9.62-9.95-.62-8.45s-1.76-5.6-2.7-6.53,0-8.26,0-8.26.53-5-.42-7.57-.18-14.3.59-18.21S59,30.26,66,25.15a113.24,113.24,0,0,1,14-9.7A7.2,7.2,0,0,1,86.38,12c4.68-.09,7.49,0,7.49,0a15,15,0,0,0,2.56-2.64c.85-1.28,1.44-2,4.34-1.62a107,107,0,0,1,17.44,2.21c8.85,2,9.79.18,9.79.18s10.21,3.31,11.66,8.85a14.92,14.92,0,0,1,0,2c-.09,1,.43,3.4,12-.68v3.23s8.17.68,10.21,13.87,0,42,0,42-.68,8.91-4.59,11.24-4.34,10.46-4.34,10.46l-5.71-27.74L136.34,51.19,120,48.81,104.68,54.6,86.81,48.81,71.66,71Z" transform="translate(0 -7.61)"/></g><g id="Layer_9" data-name="Layer 9"><path class="cls-4" d="M110.94,163.62a32.89,32.89,0,0,0,19.27-8.51c8.94-8.17,14-14,14-14s4.08-4.85,4.59-10.13,3.24-12.08,3.24-12.08,5,.68,5.78-5.62,1.11-12.6,2.56-15.83,1.44-7.58-1.11-7.92-4.09-.25-7.41,5.79c0,0,.52-9.36-1.36-16.85s-1.7-19.06-1.7-19.06S149,45,129.62,44.89c0,0-8.09-.59-19.58,2.64,0,0-10.55,1.62-19.57-1.27,0,0-10.38-4.86-14.56,1.36,0,0-7.23,8.08-8.17,19.15a153.93,153.93,0,0,1-2.46,16.42,89.58,89.58,0,0,0-1.71,15.49S62,87.11,57.87,87.19A5.62,5.62,0,0,0,52.6,91s-1.37,8.24,1.78,13,3.83,13.37,3.83,13.37.34,5.11,3,4.26A3.69,3.69,0,0,0,63.66,118a61.33,61.33,0,0,0,3.89,17.64,35.08,35.08,0,0,0,3.35,6.68,52.79,52.79,0,0,0,10,10.71,45.68,45.68,0,0,0,13.63,8.09c.8.29,1.61.56,2.43.79C96.94,161.91,105.1,163.87,110.94,163.62Z" transform="translate(0 -7.61)"/></g></svg>