<svg width="50" height="29" viewBox="0 0 50 29" fill="none" xmlns="http://www.w3.org/2000/svg">
<path d="M0 0V12.7679H15.5962C15.9376 10.533 17.0738 8.49353 18.7988 7.01883C20.5239 5.54412 22.7238 4.73174 25 4.72884C27.277 4.73066 29.478 5.54256 31.204 7.01736C32.93 8.49216 34.0668 10.5323 34.4084 12.7679H50V0H0ZM25 7.56614C23.2319 7.56614 21.5362 8.26364 20.286 9.5052C19.0357 10.7468 18.3333 12.4307 18.3333 14.1865C18.3333 15.9423 19.0357 17.6263 20.286 18.8678C21.5362 20.1094 23.2319 20.8069 25 20.8069C25.8755 20.8069 26.7424 20.6356 27.5512 20.3029C28.3601 19.9702 29.095 19.4826 29.714 18.8678C30.3331 18.2531 30.8242 17.5232 31.1592 16.72C31.4942 15.9168 31.6667 15.0559 31.6667 14.1865C31.6667 13.3171 31.4942 12.4562 31.1592 11.653C30.8242 10.8498 30.3331 10.12 29.714 9.5052C29.095 8.89044 28.3601 8.40279 27.5512 8.07008C26.7424 7.73738 25.8755 7.56614 25 7.56614ZM0 15.6052V28.373H50V15.6052H34.4038C34.0624 17.84 32.9262 19.8795 31.2012 21.3542C29.4761 22.8289 27.2762 23.6413 25 23.6442C22.723 23.6424 20.522 22.8305 18.796 21.3557C17.07 19.8809 15.9332 17.8408 15.5916 15.6052H0Z" fill="url(#paint0_linear)"/>
<defs>
<linearGradient id="paint0_linear" x1="25" y1="0" x2="25" y2="28.373" gradientUnits="userSpaceOnUse">
<stop stop-color="#F7E8CB"/>
<stop offset="0.125" stop-color="#FFE589"/>
<stop offset="0.671875" stop-color="#F8D57B"/>
<stop offset="1" stop-color="#E2BA78"/>
</linearGradient>
</defs>
</svg>
