<?xml version="1.0"?>
<svg xmlns="http://www.w3.org/2000/svg" xmlns:xlink="http://www.w3.org/1999/xlink" version="1.1" id="Capa_1" x="0px" y="0px" viewBox="0 0 479.998 479.998" style="enable-background:new 0 0 479.998 479.998;" xml:space="preserve" width="512px" height="512px" class=""><g><g>
	<g>
		<path d="M471.998,151.999H395.31l82.344-82.344c3.123-3.124,3.123-8.188,0-11.312l-56-56c-3.124-3.123-8.188-3.123-11.312,0    l-90.344,90.344l-15.032-15.032c-9.496-9.064-24.44-9.064-33.936,0l-49.376,49.376c-9.369,9.372-9.369,24.564,0,33.936    l7.032,7.032l-47.032,47.032c-9.369,9.372-9.369,24.564,0,33.936l49.368,49.376c9.372,9.373,24.568,9.375,33.941,0.003    c0.001-0.001,0.002-0.002,0.003-0.003l47.032-47.032l7.024,7.032c9.372,9.373,24.568,9.375,33.941,0.003    c0.001-0.001,0.002-0.002,0.003-0.003l18.344-18.344h100.688c4.418,0,8-3.582,8-8v-72    C479.998,155.581,476.417,151.999,471.998,151.999z M415.998,19.311l44.688,44.688l-84.688,84.688l-44.688-44.688L415.998,19.311z     M253.654,287.031c-3.161,3.034-8.151,3.034-11.312,0l-49.368-49.376c-3.123-3.124-3.123-8.188,0-11.312l47.024-47.032    l60.688,60.688L253.654,287.031z M341.654,247.031c-3.161,3.034-8.151,3.034-11.312,0l-97.368-97.376    c-3.123-3.124-3.123-8.188,0-11.312l49.376-49.376c3.124-3.123,8.188-3.123,11.312,0l97.36,97.376    c3.123,3.124,3.123,8.188,0,11.312L341.654,247.031z M463.998,223.999H387.31l15.032-15.032c9.369-9.372,9.369-24.564,0-33.936    l-7.032-7.032h68.688V223.999z" data-original="#000000" class="active-path" data-old_color="#000000" fill="#FFFFFF"/>
	</g>
</g><g>
	<g>
		<path d="M365.654,186.343l-72-72c-3.124-3.123-8.188-3.123-11.312,0l-24,24c-3.123,3.124-3.123,8.188,0,11.312l72,72    c3.124,3.123,8.188,3.123,11.312,0l24-24C368.777,194.531,368.777,189.467,365.654,186.343z M335.998,204.687l-60.688-60.688    l12.688-12.688l60.688,60.688L335.998,204.687z" data-original="#000000" class="active-path" data-old_color="#000000" fill="#FFFFFF"/>
	</g>
</g><g>
	<g>
		<path d="M277.654,234.343l-32-32c-3.124-3.123-8.188-3.123-11.312,0l-24,24c-3.123,3.124-3.123,8.188,0,11.312l32,32    c3.124,3.123,8.188,3.123,11.312,0l24-24C280.777,242.531,280.777,237.467,277.654,234.343z M247.998,252.687l-20.688-20.688    l12.688-12.688l20.688,20.688L247.998,252.687z" data-original="#000000" class="active-path" data-old_color="#000000" fill="#FFFFFF"/>
	</g>
</g><g>
	<g>
		<path d="M237.654,346.343l-104-104c-3.124-3.123-8.188-3.123-11.312,0l-84.688,84.688c-9.369,9.372-9.369,24.564,0,33.936    l7.032,7.032L2.342,410.343c-3.123,3.124-3.123,8.188,0,11.312l56,56c3.124,3.123,8.188,3.123,11.312,0l42.344-42.344l7.024,7.032    c9.372,9.373,24.568,9.375,33.941,0.003c0.001-0.001,0.002-0.002,0.003-0.003l84.688-84.688    C240.777,354.531,240.777,349.467,237.654,346.343z M63.998,460.687L19.31,415.999l36.688-36.688l44.688,44.688L63.998,460.687z     M141.654,431.031c-3.161,3.034-8.151,3.034-11.312,0l-81.368-81.376c-3.123-3.124-3.123-8.188,0-11.312h-0.008l79.032-79.032    l92.688,92.688L141.654,431.031z" data-original="#000000" class="active-path" data-old_color="#000000" fill="#FFFFFF"/>
	</g>
</g><g>
	<g>
		<path d="M197.654,346.343l-64-64c-3.124-3.123-8.188-3.123-11.312,0l-56,56c-3.123,3.124-3.123,8.188,0,11.312l64,64    c3.124,3.123,8.188,3.123,11.312,0l56-56C200.777,354.531,200.777,349.467,197.654,346.343z M135.998,396.687L83.31,343.999    l44.688-44.688l52.688,52.688L135.998,396.687z" data-original="#000000" class="active-path" data-old_color="#000000" fill="#FFFFFF"/>
	</g>
</g></g> </svg>
