<?xml version="1.0"?>
<svg xmlns="http://www.w3.org/2000/svg" height="512px" viewBox="0 0 192 192" width="512px"><g><g id="_15-light" data-name="15-light"><g id="Glyph"><path d="m104 24c-40.209 0-104 19.547-104 72 0 24.306 13.522 44.06 39.106 57.125 18.24 9.314 42.494 14.875 64.894 14.875a8 8 0 0 0 8-8v-128a8 8 0 0 0 -8-8z" data-original="#000000" class="active-path" data-old_color="#000000" fill="#FFFFFF"/><path d="m128 24h64v16h-64z" data-original="#000000" class="active-path" data-old_color="#000000" fill="#FFFFFF"/><path d="m128 88h64v16h-64z" data-original="#000000" class="active-path" data-old_color="#000000" fill="#FFFFFF"/><path d="m128 152h64v16h-64z" data-original="#000000" class="active-path" data-old_color="#000000" fill="#FFFFFF"/><path d="m128 120h64v16h-64z" data-original="#000000" class="active-path" data-old_color="#000000" fill="#FFFFFF"/><path d="m128 56h64v16h-64z" data-original="#000000" class="active-path" data-old_color="#000000" fill="#FFFFFF"/></g></g></g> </svg>
