<svg height="512pt" viewBox="0 0 512 512" width="512pt" xmlns="http://www.w3.org/2000/svg"><path d="m512 256c0 141.386719-114.613281 256-256 256s-256-114.613281-256-256 114.613281-256 256-256 256 114.613281 256 256zm0 0" fill="#414952"/><path d="m512 256c0-2.636719-.054688-5.261719-.132812-7.878906l-76.867188-76.867188-25.144531 23.753906-37.445313-37.445312-295.410156 183.183594 33.722656 33.722656-17.390625 26.976562 103.722657 103.722657c18.925781 4.460937 38.65625 6.832031 58.945312 6.832031 141.386719 0 256-114.613281 256-256zm0 0" fill="#333940"/><path d="m77 171.253906h358v169.492188h-358zm0 0" fill="#a3d4ff"/><path d="m255.523438 171.253906h179.476562v169.492188h-179.476562zm0 0" fill="#65b1fc"/><path d="m307 256c0-33.414062-22.832031-60.5-51-60.5s-51 27.085938-51 60.5 22.832031 60.5 51 60.5 51-27.085938 51-60.5zm0 0" fill="#4a98f7"/><path d="m256 195.5c-.160156 0-.316406.011719-.476562.015625v120.96875c.160156.003906.316406.015625.476562.015625 28.167969 0 51-27.085938 51-60.5s-22.832031-60.5-51-60.5zm0 0" fill="#4a7aff"/><path d="m166.5 256c0 19.605469-15.894531 35.5-35.5 35.5s-35.5-15.894531-35.5-35.5 15.894531-35.5 35.5-35.5 35.5 15.894531 35.5 35.5zm0 0" fill="#4a98f7"/><path d="m416.5 256c0 19.605469-15.894531 35.5-35.5 35.5s-35.5-15.894531-35.5-35.5 15.894531-35.5 35.5-35.5 35.5 15.894531 35.5 35.5zm0 0" fill="#4a7aff"/><path d="m271.785156 326.542969c0-9.578125-7.765625-17.34375-17.347656-17.34375-.5 0-.992188.03125-1.484375.074219-5.625-8.558594-15.308594-14.214844-26.316406-14.214844-15.855469 0-28.96875 11.722656-31.15625 26.972656h-93.472657c-6.285156 0-11.585937 4.175781-13.292968 9.902344-.4375 1.347656-.679688 2.785156-.679688 4.277344v54.335937c0 7.660156 6.210938 13.875 13.875 13.875 7.664063 0 13.878906-6.214844 13.878906-13.875v-28.125c0-6.980469 5.660157-12.640625 12.640626-12.640625 6.980468 0 12.640624 5.660156 12.640624 12.640625v68.707031c0 7.636719 5.976563 14.191406 13.613282 14.332032 7.785156.140624 14.136718-6.125 14.136718-13.875v-41.042969c0 7.75 6.355469 14.015625 14.136719 13.875 7.636719-.140625 13.613281-6.695313 13.613281-14.332031v-26.921876c.054688 0 .105469.007813.160157.007813 6.484375 0 12.128906-3.566406 15.105469-8.839844 4.414062 2.355469 9.449218 3.695313 14.800781 3.695313 6.328125 0 12.214843-1.878906 17.148437-5.09375v39.566406c0 7.730469 6.269532 14 14 14 7.734375 0 14-6.269531 14-14 0 0 0-65.246094 0-65.957031zm0 0" fill="#ea2828"/><g fill="#c61a1a"><path d="m255.523438 309.253906v97.046875c.738281.121094 1.488281.199219 2.261718.199219 7.730469 0 14-6.269531 14-14 0 0 0-65.246094 0-65.957031 0-9.214844-7.1875-16.726563-16.261718-17.289063zm0 0"/><path d="m377.667969 341.144531v50.445313c0 6.792968 5.3125 12.617187 12.101562 12.742187 6.917969.125 12.5625-5.445312 12.5625-12.332031v-41c0-2.210938 1.792969-4 4-4 2.210938 0 4 1.789062 4 4v17.746094c0 6.8125 5.523438 12.332031 12.332031 12.332031 6.8125 0 12.335938-5.519531 12.335938-12.332031v-27.597656c0-9.65625-7.828125-17.480469-17.480469-17.480469h-22.375c-9.652343 0-17.476562 7.824219-17.476562 17.476562zm0 0"/><path d="m349.832031 146c-8.289062 0-15.726562 3.628906-20.828125 9.378906-3.300781-2.03125-7.183594-3.207031-11.34375-3.207031-11.960937 0-21.660156 9.699219-21.660156 21.664063 0 11.960937 9.695312 21.660156 21.660156 21.660156 4.160156 0 8.042969-1.175782 11.34375-3.207032 5.101563 5.75 12.539063 9.378907 20.828125 9.378907 15.371094 0 27.832031-12.464844 27.832031-27.832031.003907-15.375-12.460937-27.835938-27.832031-27.835938zm0 0"/></g></svg>