<svg height="512pt" viewBox="-15 0 512 512" width="512pt" xmlns="http://www.w3.org/2000/svg"><path d="m346 0c-47.121094 0-88.601562 23.527344-112.921875 60.125-2.363281-.074219-4.722656-.113281-7.078125-.113281v-.011719c-.136719 0-.277344.007812-.414062.007812-124.234376.148438-225.585938 100.96875-225.585938 224.992188 0 124.324219 101.566406 227 226 227 124.574219 0 225-102.859375 225-227 0-19.652344-2.53125-39.082031-7.527344-57.890625 23.230469-24.261719 37.527344-57.144531 37.527344-93.308594 0-73.539062-59.414062-133.800781-135-133.800781zm-205.542969 109.503906c-18.566406 24.859375-31.367187 55.242188-39.273437 85.496094h-49.136719c19.78125-37.605469 51.683594-67.644531 88.410156-85.496094zm-110.457031 175.496094c0-20.734375 3.214844-40.914062 9.402344-60.011719h55.429687c-3.183593 19.320313-4.832031 39.472657-4.832031 60.011719 0 20.859375 1.695312 41.34375 4.964844 61h-55.335938c-6.238281-19.214844-9.628906-39.714844-9.628906-61zm22.207031 91h49.136719c8.003906 30.59375 20.945312 61.355469 39.691406 86.511719-38.050781-18.472657-69.285156-48.953125-88.828125-86.511719zm158.792969 103.894531c-40.429688-11.378906-66.789062-63.515625-78.5625-103.894531h78.5625zm0-133.894531h-85.605469c-3.546875-19.484375-5.394531-40.003906-5.394531-61 0-20.824219 1.890625-41.007812 5.355469-60h85.644531zm0-226v75h-78.589844c16.816406-57.722656 48.984375-99.179688 85.6875-104.433594-4.015625 11.8125-5.035156 20.136719-7.097656 29.433594zm120-88.9375v31.515625c-17.460938 6.195313-30 22.867187-30 42.421875 0 24.8125 20.1875 45 45 45 8.269531 0 15 6.730469 15 15s-6.730469 15-15 15-15-6.730469-15-15h-30c0 19.554688 12.539062 36.226562 30 42.421875v30.300781c-50.816406-7.300781-90-51.117187-90-103.921875 0-52.203125 39.183594-95.519531 90-102.738281zm-90 193.9375h5.554688c21.417968 23.335938 50.921874 39.132812 84.019531 42.914062.273437 5.675782.425781 11.386719.425781 17.085938 0 21.179688-1.898438 41.699219-5.375 61h-84.625zm0 254.882812v-103.894531h77.683594c-15.554688 54.40625-44.355469 94.496094-77.683594 103.894531zm69.628906-17.421874c18.605469-25.199219 31.34375-56.011719 39.199219-86.472657h49.078125c-19.425781 37.527344-50.464844 67.996094-88.277344 86.472657zm100.789063-116.460938h-55.304688c3.214844-19.644531 4.886719-40.128906 4.886719-61 0-5.664062-.132812-11.34375-.378906-16.992188 20.730468-2.246093 40.066406-9.199218 56.917968-19.773437 2.300782 12.0625 3.460938 24.359375 3.460938 36.765625 0 21.285156-3.371094 41.785156-9.582031 61zm-50.417969-108.277344v-30.300781c17.460938-6.195313 30-22.867187 30-42.421875 0-24.8125-20.1875-45-45-45-8.269531 0-15-6.730469-15-15s6.730469-15 15-15 15 6.730469 15 15h30c0-19.554688-12.539062-36.226562-30-42.421875v-31.515625c50.816406 7.21875 90 50.535156 90 102.738281 0 52.804688-39.183594 96.621094-90 103.921875zm0 0"/></svg>